<svg width="760" height="80" viewBox="0 0 760 80" fill="none" xmlns="http://www.w3.org/2000/svg">
<path d="M22.5245 63.9204C17.3679 63.9204 12.9479 63.0137 9.26453 61.2004C5.63786 59.3871 2.54953 57.0921 -0.000468537 54.3154L8.49953 45.7304C10.4829 47.9971 12.7212 49.6971 15.2145 50.8304C17.7645 51.9637 20.4845 52.5304 23.3745 52.5304C26.5479 52.5304 28.8995 51.8787 30.4295 50.5754C31.9595 49.2721 32.7245 47.5437 32.7245 45.3904C32.7245 44.3137 32.5262 43.3504 32.1295 42.5004C31.7895 41.5937 31.1095 40.8571 30.0895 40.2904C29.1262 39.6671 27.7095 39.2421 25.8395 39.0154L19.9745 38.2504C15.8379 37.6837 12.4095 36.6637 9.68953 35.1904C7.0262 33.6604 5.04286 31.6771 3.73953 29.2404C2.4362 26.7471 1.78453 23.8571 1.78453 20.5704C1.78453 17.0004 2.66286 13.8837 4.41953 11.2204C6.23287 8.50039 8.78287 6.37539 12.0695 4.84539C15.4129 3.31539 19.4079 2.55039 24.0545 2.55039C28.5312 2.55039 32.4695 3.28705 35.8695 4.76039C39.2695 6.17705 42.1879 8.21705 44.6245 10.8804L36.0395 19.5504C34.6229 17.9071 32.8945 16.5754 30.8545 15.5554C28.8712 14.4787 26.3495 13.9404 23.2895 13.9404C20.3995 13.9404 18.2462 14.4504 16.8295 15.4704C15.4129 16.4904 14.7045 17.9071 14.7045 19.7204C14.7045 21.0804 14.9312 22.1854 15.3845 23.0354C15.8945 23.8854 16.6595 24.5371 17.6795 24.9904C18.7562 25.4437 20.1162 25.8121 21.7595 26.0954L27.6245 27.0304C31.7045 27.6537 35.0762 28.7021 37.7395 30.1754C40.4029 31.6487 42.3862 33.5754 43.6895 35.9554C44.9929 38.3354 45.6445 41.2254 45.6445 44.6254C45.6445 48.4221 44.7379 51.7654 42.9245 54.6554C41.1679 57.5454 38.5612 59.8121 35.1045 61.4554C31.6479 63.0987 27.4545 63.9204 22.5245 63.9204ZM95.2265 62.9004H88.2565C86.7265 62.9004 85.2815 62.5321 83.9215 61.7954C82.6182 61.0021 81.5699 59.8687 80.7765 58.3954C79.9832 56.8654 79.5865 55.0521 79.5865 52.9554V51.8504L82.3065 55.0804H79.2465C78.5665 57.9704 77.0649 60.1804 74.7415 61.7104C72.4182 63.1837 69.5565 63.9204 66.1565 63.9204C61.6799 63.9204 58.2515 62.7304 55.8715 60.3504C53.4915 57.9137 52.3015 54.7687 52.3015 50.9154C52.3015 47.7421 53.0665 45.1354 54.5965 43.0954C56.1832 41.0554 58.3932 39.5254 61.2265 38.5054C64.1165 37.4854 67.5165 36.9754 71.4265 36.9754H78.4815V34.1704C78.4815 32.0171 77.9149 30.3171 76.7815 29.0704C75.6482 27.7671 73.7499 27.1154 71.0865 27.1154C68.5932 27.1154 66.6099 27.6537 65.1365 28.7304C63.6632 29.8071 62.4449 31.0254 61.4815 32.3854L54.0015 25.7554C55.8149 23.0921 58.1099 21.0237 60.8865 19.5504C63.6632 18.0204 67.3749 17.2554 72.0215 17.2554C78.3115 17.2554 83.0432 18.6721 86.2165 21.5054C89.4465 24.2821 91.0615 28.3054 91.0615 33.5754V53.1254H95.2265V62.9004ZM78.4815 44.1154H72.3615C69.9249 44.1154 68.0832 44.5404 66.8365 45.3904C65.5899 46.2404 64.9665 47.4871 64.9665 49.1304V50.4054C64.9665 51.9921 65.4765 53.1821 66.4965 53.9754C67.5165 54.7687 68.9615 55.1654 70.8315 55.1654C72.2482 55.1654 73.5232 54.9671 74.6565 54.5704C75.7899 54.1737 76.6965 53.5504 77.3765 52.7004C78.1132 51.8504 78.4815 50.7454 78.4815 49.3854V44.1154ZM115.85 62.9004H103.27V18.2754H115.85V25.8404H116.36C117.153 23.5171 118.542 21.5054 120.525 19.8054C122.508 18.1054 125.257 17.2554 128.77 17.2554C133.303 17.2554 136.76 18.8137 139.14 21.9304C141.52 24.9904 142.71 29.3254 142.71 34.9354V62.9004H130.13V35.9554C130.13 33.1221 129.677 30.9971 128.77 29.5804C127.863 28.1637 126.248 27.4554 123.925 27.4554C122.565 27.4554 121.262 27.7104 120.015 28.2204C118.825 28.6737 117.833 29.3821 117.04 30.3454C116.247 31.3087 115.85 32.5271 115.85 34.0004V62.9004ZM180.875 62.9004V55.4204H180.45C179.827 57.8571 178.382 59.8971 176.115 61.5404C173.905 63.1271 171.355 63.9204 168.465 63.9204C164.725 63.9204 161.58 63.0421 159.03 61.2854C156.48 59.4721 154.553 56.8371 153.25 53.3804C151.947 49.8671 151.295 45.5887 151.295 40.5454C151.295 35.5021 151.947 31.2521 153.25 27.7954C154.553 24.3387 156.48 21.7321 159.03 19.9754C161.58 18.1621 164.725 17.2554 168.465 17.2554C171.355 17.2554 173.905 18.0487 176.115 19.6354C178.382 21.2221 179.827 23.2621 180.45 25.7554H180.875V0.000389814H193.455V62.9004H180.875ZM172.63 53.7204C174.217 53.7204 175.633 53.4654 176.88 52.9554C178.127 52.4454 179.09 51.7087 179.77 50.7454C180.507 49.7254 180.875 48.5354 180.875 47.1754V34.0004C180.875 32.6404 180.507 31.4787 179.77 30.5154C179.09 29.4954 178.127 28.7304 176.88 28.2204C175.633 27.7104 174.217 27.4554 172.63 27.4554C170.25 27.4554 168.267 28.3054 166.68 30.0054C165.15 31.6487 164.385 33.8871 164.385 36.7204V44.4554C164.385 47.2321 165.15 49.4704 166.68 51.1704C168.267 52.8704 170.25 53.7204 172.63 53.7204ZM223.434 63.9204C218.9 63.9204 215.019 62.9854 211.789 61.1154C208.615 59.1887 206.179 56.4687 204.479 52.9554C202.835 49.4421 202.014 45.3054 202.014 40.5454C202.014 35.8421 202.807 31.7621 204.394 28.3054C206.037 24.7921 208.417 22.0721 211.534 20.1454C214.65 18.2187 218.447 17.2554 222.924 17.2554C227.854 17.2554 231.82 18.3321 234.824 20.4854C237.884 22.5821 240.122 25.3587 241.539 28.8154C242.955 32.2721 243.664 36.0121 243.664 40.0354V43.7754H215.019V44.4554C215.019 47.4021 215.812 49.7537 217.399 51.5104C219.042 53.2104 221.535 54.0604 224.879 54.0604C227.542 54.0604 229.667 53.5221 231.254 52.4454C232.897 51.3687 234.427 50.1221 235.844 48.7054L242.134 56.5254C240.15 58.7921 237.544 60.6054 234.314 61.9654C231.14 63.2687 227.514 63.9204 223.434 63.9204ZM223.179 26.5204C221.479 26.5204 220.005 26.9171 218.759 27.7104C217.569 28.4471 216.634 29.4954 215.954 30.8554C215.33 32.2154 215.019 33.8304 215.019 35.7004V36.3804H230.659V35.6154C230.659 33.8021 230.375 32.2154 229.809 30.8554C229.299 29.4954 228.477 28.4471 227.344 27.7104C226.267 26.9171 224.879 26.5204 223.179 26.5204ZM270.763 63.9204C266.23 63.9204 262.348 62.9854 259.118 61.1154C255.945 59.1887 253.508 56.4687 251.808 52.9554C250.165 49.4421 249.343 45.3054 249.343 40.5454C249.343 35.8421 250.137 31.7621 251.723 28.3054C253.367 24.7921 255.747 22.0721 258.863 20.1454C261.98 18.2187 265.777 17.2554 270.253 17.2554C275.183 17.2554 279.15 18.3321 282.153 20.4854C285.213 22.5821 287.452 25.3587 288.868 28.8154C290.285 32.2721 290.993 36.0121 290.993 40.0354V43.7754H262.348V44.4554C262.348 47.4021 263.142 49.7537 264.728 51.5104C266.372 53.2104 268.865 54.0604 272.208 54.0604C274.872 54.0604 276.997 53.5221 278.583 52.4454C280.227 51.3687 281.757 50.1221 283.173 48.7054L289.463 56.5254C287.48 58.7921 284.873 60.6054 281.643 61.9654C278.47 63.2687 274.843 63.9204 270.763 63.9204ZM270.508 26.5204C268.808 26.5204 267.335 26.9171 266.088 27.7104C264.898 28.4471 263.963 29.4954 263.283 30.8554C262.66 32.2154 262.348 33.8304 262.348 35.7004V36.3804H277.988V35.6154C277.988 33.8021 277.705 32.2154 277.138 30.8554C276.628 29.4954 275.807 28.4471 274.673 27.7104C273.597 26.9171 272.208 26.5204 270.508 26.5204ZM299.478 79.9004V18.2754H312.058V25.7554H312.483C313.106 23.2621 314.523 21.2221 316.733 19.6354C318.999 18.0487 321.578 17.2554 324.468 17.2554C328.264 17.2554 331.409 18.1621 333.903 19.9754C336.453 21.7321 338.379 24.3387 339.683 27.7954C340.986 31.2521 341.638 35.5021 341.638 40.5454C341.638 45.5887 340.986 49.8671 339.683 53.3804C338.379 56.8371 336.453 59.4721 333.903 61.2854C331.409 63.0421 328.264 63.9204 324.468 63.9204C321.578 63.9204 318.999 63.1271 316.733 61.5404C314.523 59.8971 313.106 57.8571 312.483 55.4204H312.058V79.9004H299.478ZM320.303 53.7204C322.683 53.7204 324.638 52.8704 326.168 51.1704C327.754 49.4704 328.548 47.2321 328.548 44.4554V36.7204C328.548 33.8871 327.754 31.6487 326.168 30.0054C324.638 28.3054 322.683 27.4554 320.303 27.4554C318.716 27.4554 317.299 27.7104 316.053 28.2204C314.806 28.7304 313.814 29.4954 313.078 30.5154C312.398 31.4787 312.058 32.6404 312.058 34.0004V47.1754C312.058 48.5354 312.398 49.7254 313.078 50.7454C313.814 51.7087 314.806 52.4454 316.053 52.9554C317.299 53.4654 318.716 53.7204 320.303 53.7204ZM370.819 3.57039H383.399V39.9504C383.399 42.7271 383.739 45.0504 384.419 46.9204C385.156 48.7337 386.318 50.1221 387.904 51.0854C389.491 51.9921 391.559 52.4454 394.109 52.4454C396.659 52.4454 398.699 51.9921 400.229 51.0854C401.816 50.1221 402.978 48.7337 403.714 46.9204C404.451 45.0504 404.819 42.7271 404.819 39.9504V3.57039H417.399V38.5904C417.399 44.4271 416.634 49.2154 415.104 52.9554C413.574 56.6954 411.109 59.4721 407.709 61.2854C404.309 63.0421 399.776 63.9204 394.109 63.9204C388.443 63.9204 383.909 63.0421 380.509 61.2854C377.109 59.4721 374.644 56.6954 373.114 52.9554C371.584 49.2154 370.819 44.4271 370.819 38.5904V3.57039ZM429.098 79.9004V18.2754H441.678V25.7554H442.103C442.726 23.2621 444.143 21.2221 446.353 19.6354C448.62 18.0487 451.198 17.2554 454.088 17.2554C457.885 17.2554 461.03 18.1621 463.523 19.9754C466.073 21.7321 468 24.3387 469.303 27.7954C470.606 31.2521 471.258 35.5021 471.258 40.5454C471.258 45.5887 470.606 49.8671 469.303 53.3804C468 56.8371 466.073 59.4721 463.523 61.2854C461.03 63.0421 457.885 63.9204 454.088 63.9204C451.198 63.9204 448.62 63.1271 446.353 61.5404C444.143 59.8971 442.726 57.8571 442.103 55.4204H441.678V79.9004H429.098ZM449.923 53.7204C452.303 53.7204 454.258 52.8704 455.788 51.1704C457.375 49.4704 458.168 47.2321 458.168 44.4554V36.7204C458.168 33.8871 457.375 31.6487 455.788 30.0054C454.258 28.3054 452.303 27.4554 449.923 27.4554C448.336 27.4554 446.92 27.7104 445.673 28.2204C444.426 28.7304 443.435 29.4954 442.698 30.5154C442.018 31.4787 441.678 32.6404 441.678 34.0004V47.1754C441.678 48.5354 442.018 49.7254 442.698 50.7454C443.435 51.7087 444.426 52.4454 445.673 52.9554C446.92 53.4654 448.336 53.7204 449.923 53.7204ZM520.362 62.9004H513.392C511.862 62.9004 510.417 62.5321 509.057 61.7954C507.754 61.0021 506.705 59.8687 505.912 58.3954C505.119 56.8654 504.722 55.0521 504.722 52.9554V51.8504L507.442 55.0804H504.382C503.702 57.9704 502.2 60.1804 499.877 61.7104C497.554 63.1837 494.692 63.9204 491.292 63.9204C486.815 63.9204 483.387 62.7304 481.007 60.3504C478.627 57.9137 477.437 54.7687 477.437 50.9154C477.437 47.7421 478.202 45.1354 479.732 43.0954C481.319 41.0554 483.529 39.5254 486.362 38.5054C489.252 37.4854 492.652 36.9754 496.562 36.9754H503.617V34.1704C503.617 32.0171 503.05 30.3171 501.917 29.0704C500.784 27.7671 498.885 27.1154 496.222 27.1154C493.729 27.1154 491.745 27.6537 490.272 28.7304C488.799 29.8071 487.58 31.0254 486.617 32.3854L479.137 25.7554C480.95 23.0921 483.245 21.0237 486.022 19.5504C488.799 18.0204 492.51 17.2554 497.157 17.2554C503.447 17.2554 508.179 18.6721 511.352 21.5054C514.582 24.2821 516.197 28.3054 516.197 33.5754V53.1254H520.362V62.9004ZM503.617 44.1154H497.497C495.06 44.1154 493.219 44.5404 491.972 45.3904C490.725 46.2404 490.102 47.4871 490.102 49.1304V50.4054C490.102 51.9921 490.612 53.1821 491.632 53.9754C492.652 54.7687 494.097 55.1654 495.967 55.1654C497.384 55.1654 498.659 54.9671 499.792 54.5704C500.925 54.1737 501.832 53.5504 502.512 52.7004C503.249 51.8504 503.617 50.7454 503.617 49.3854V44.1154ZM555.775 62.9004V55.4204H555.35C554.727 57.8571 553.282 59.8971 551.015 61.5404C548.805 63.1271 546.255 63.9204 543.365 63.9204C539.625 63.9204 536.48 63.0421 533.93 61.2854C531.38 59.4721 529.454 56.8371 528.15 53.3804C526.847 49.8671 526.195 45.5887 526.195 40.5454C526.195 35.5021 526.847 31.2521 528.15 27.7954C529.454 24.3387 531.38 21.7321 533.93 19.9754C536.48 18.1621 539.625 17.2554 543.365 17.2554C546.255 17.2554 548.805 18.0487 551.015 19.6354C553.282 21.2221 554.727 23.2621 555.35 25.7554H555.775V0.000389814H568.355V62.9004H555.775ZM547.53 53.7204C549.117 53.7204 550.534 53.4654 551.78 52.9554C553.027 52.4454 553.99 51.7087 554.67 50.7454C555.407 49.7254 555.775 48.5354 555.775 47.1754V34.0004C555.775 32.6404 555.407 31.4787 554.67 30.5154C553.99 29.4954 553.027 28.7304 551.78 28.2204C550.534 27.7104 549.117 27.4554 547.53 27.4554C545.15 27.4554 543.167 28.3054 541.58 30.0054C540.05 31.6487 539.285 33.8871 539.285 36.7204V44.4554C539.285 47.2321 540.05 49.4704 541.58 51.1704C543.167 52.8704 545.15 53.7204 547.53 53.7204ZM579.719 62.9004V0.000389814H592.299V25.8404H592.809C593.603 23.5171 594.991 21.5054 596.974 19.8054C598.958 18.1054 601.706 17.2554 605.219 17.2554C609.753 17.2554 613.209 18.8137 615.589 21.9304C617.969 24.9904 619.159 29.3254 619.159 34.9354V62.9004H606.579V35.9554C606.579 33.1221 606.126 30.9971 605.219 29.5804C604.313 28.1637 602.698 27.4554 600.374 27.4554C599.014 27.4554 597.711 27.7104 596.464 28.2204C595.274 28.6737 594.283 29.3821 593.489 30.3454C592.696 31.3087 592.299 32.5271 592.299 34.0004V62.9004H579.719ZM650.03 39.1004L656.575 18.2754H668.305L651.135 69.7854C650.398 72.0521 649.435 73.9221 648.245 75.3954C647.112 76.9254 645.667 78.0587 643.91 78.7954C642.153 79.5321 640 79.9004 637.45 79.9004H629.63V70.1254H638.045L639.575 65.1954L623.935 18.2754H636.43L642.975 39.1004L646.205 52.0204H646.715L650.03 39.1004ZM713.083 62.9004H706.113C704.583 62.9004 703.138 62.5321 701.778 61.7954C700.475 61.0021 699.427 59.8687 698.633 58.3954C697.84 56.8654 697.443 55.0521 697.443 52.9554V51.8504L700.163 55.0804H697.103C696.423 57.9704 694.922 60.1804 692.598 61.7104C690.275 63.1837 687.413 63.9204 684.013 63.9204C679.537 63.9204 676.108 62.7304 673.728 60.3504C671.348 57.9137 670.158 54.7687 670.158 50.9154C670.158 47.7421 670.923 45.1354 672.453 43.0954C674.04 41.0554 676.25 39.5254 679.083 38.5054C681.973 37.4854 685.373 36.9754 689.283 36.9754H696.338V34.1704C696.338 32.0171 695.772 30.3171 694.638 29.0704C693.505 27.7671 691.607 27.1154 688.943 27.1154C686.45 27.1154 684.467 27.6537 682.993 28.7304C681.52 29.8071 680.302 31.0254 679.338 32.3854L671.858 25.7554C673.672 23.0921 675.967 21.0237 678.743 19.5504C681.52 18.0204 685.232 17.2554 689.878 17.2554C696.168 17.2554 700.9 18.6721 704.073 21.5054C707.303 24.2821 708.918 28.3054 708.918 33.5754V53.1254H713.083V62.9004ZM696.338 44.1154H690.218C687.782 44.1154 685.94 44.5404 684.693 45.3904C683.447 46.2404 682.823 47.4871 682.823 49.1304V50.4054C682.823 51.9921 683.333 53.1821 684.353 53.9754C685.373 54.7687 686.818 55.1654 688.688 55.1654C690.105 55.1654 691.38 54.9671 692.513 54.5704C693.647 54.1737 694.553 53.5504 695.233 52.7004C695.97 51.8504 696.338 50.7454 696.338 49.3854V44.1154ZM741.12 39.1004L747.665 18.2754H759.395L742.225 69.7854C741.488 72.0521 740.525 73.9221 739.335 75.3954C738.201 76.9254 736.756 78.0587 735 78.7954C733.243 79.5321 731.09 79.9004 728.54 79.9004H720.72V70.1254H729.135L730.665 65.1954L715.025 18.2754H727.52L734.065 39.1004L737.295 52.0204H737.805L741.12 39.1004Z" fill="#1C1917"/>
</svg>
