<svg width="250" height="250" viewBox="0 0 250 250" fill="none" xmlns="http://www.w3.org/2000/svg">
<rect width="250" height="250" rx="125" fill="white"/>
<path d="M124.125 215.25C108.958 215.25 95.9583 212.583 85.125 207.25C74.4583 201.917 65.375 195.167 57.875 187L82.875 161.75C88.7083 168.417 95.2917 173.417 102.625 176.75C110.125 180.083 118.125 181.75 126.625 181.75C135.958 181.75 142.875 179.833 147.375 176C151.875 172.167 154.125 167.083 154.125 160.75C154.125 157.583 153.542 154.75 152.375 152.25C151.375 149.583 149.375 147.417 146.375 145.75C143.542 143.917 139.375 142.667 133.875 142L116.625 139.75C104.458 138.083 94.375 135.083 86.375 130.75C78.5417 126.25 72.7083 120.417 68.875 113.25C65.0417 105.917 63.125 97.4167 63.125 87.75C63.125 77.25 65.7083 68.0833 70.875 60.25C76.2083 52.25 83.7083 46 93.375 41.5C103.208 37 114.958 34.75 128.625 34.75C141.792 34.75 153.375 36.9167 163.375 41.25C173.375 45.4167 181.958 51.4167 189.125 59.25L163.875 84.75C159.708 79.9167 154.625 76 148.625 73C142.792 69.8333 135.375 68.25 126.375 68.25C117.875 68.25 111.542 69.75 107.375 72.75C103.208 75.75 101.125 79.9167 101.125 85.25C101.125 89.25 101.792 92.5 103.125 95C104.625 97.5 106.875 99.4167 109.875 100.75C113.042 102.083 117.042 103.167 121.875 104L139.125 106.75C151.125 108.583 161.042 111.667 168.875 116C176.708 120.333 182.542 126 186.375 133C190.208 140 192.125 148.5 192.125 158.5C192.125 169.667 189.458 179.5 184.125 188C178.958 196.5 171.292 203.167 161.125 208C150.958 212.833 138.625 215.25 124.125 215.25Z" fill="#EB5E28"/>
</svg>
